<?xml version="1.0" encoding="UTF-8"?>
<svg width="692px" height="390px" viewBox="0 0 692 390" version="1.1" xmlns="http://www.w3.org/2000/svg" xmlns:xlink="http://www.w3.org/1999/xlink" style="background: #FFFFFF;">
    <!-- Generator: Sketch 51.1 (57501) - http://www.bohemiancoding.com/sketch -->
    <title>Buyer-Seller Topology</title>
    <desc>Created with Sketch.</desc>
    <defs></defs>
    <g id="Page-1" stroke="none" stroke-width="1" fill="none" fill-rule="evenodd">
        <g id="Group-4" transform="translate(472.000000, 53.000000)">
            <path id="Line-Copy-2" d="M124.562986,255.996017 L127.893385,246.500837 L118.965082,247.63459 L124.562986,255.996017 Z M116.003983,192.562986 L123.004814,247.694529 L123.0678,248.190546 L124.059834,248.064574 L123.996848,247.568557 L116.996017,192.437014 L116.933031,191.940997 L115.940997,192.066969 L116.003983,192.562986 Z" fill="#979797" fill-rule="nonzero"></path>
            <path id="Line-Copy-3" d="M197.764999,235.923999 L196.811001,225.907019 L189.179017,230.67701 L197.764999,235.923999 Z M152.076001,163.764999 L192.852879,229.008004 L193.117878,229.432003 L193.965876,228.902004 L193.700877,228.478005 L152.923999,163.235001 L152.659,162.811001 L151.811001,163.341 L152.076001,163.764999 Z" fill="#979797" fill-rule="nonzero"></path>
            <path id="Line-Copy-4" d="M217.99396,130.577484 L209.800039,124.737136 L208.405329,133.628412 L217.99396,130.577484 Z M166.422516,122.99396 L209.584384,129.764449 L210.078344,129.841933 L210.233312,128.854013 L209.739352,128.776529 L166.577484,122.00604 L166.083524,121.928556 L165.928556,122.916476 L166.422516,122.99396 Z" fill="#979797" fill-rule="nonzero"></path>
            <path id="Line-Copy-5" d="M41.2738119,240.945914 L49.3584198,234.955161 L41.3319746,230.883776 L41.2738119,240.945914 Z M76.0540864,171.273812 L44.6527223,233.179358 L44.4265342,233.625272 L45.3183615,234.077648 L45.5445495,233.631734 L76.9459136,171.726188 L77.1721017,171.280274 L76.2802744,170.827898 L76.0540864,171.273812 Z" fill="#979797" fill-rule="nonzero"></path>
            <path id="Line-Copy-6" d="M0.0139588957,142.61732 L9.81858117,144.879925 L7.70681637,136.131186 L0.0139588957,142.61732 Z M58.3826797,128.013959 L8.13628422,140.142399 L7.65024312,140.259719 L7.88488365,141.231802 L8.37092476,141.114481 L58.6173203,128.986041 L59.1033614,128.868721 L58.8687208,127.896639 L58.3826797,128.013959 Z" fill="#979797" fill-rule="nonzero"></path>
            <path id="Line-Copy-7" d="M21.1691892,43.1250811 L23.7495136,52.8509191 L30.4980543,46.8963244 L21.1691892,43.1250811 Z M66.8749189,94.1691892 L27.1349389,49.1305451 L26.804128,48.7556262 L26.0542902,49.4172478 L26.385101,49.7921667 L66.1250811,94.8308108 L66.4558919,95.2057297 L67.2057297,94.5441081 L66.8749189,94.1691892 Z" fill="#979797" fill-rule="nonzero"></path>
            <path id="Line-Copy-8" d="M126.596817,0.00946298586 L120.439286,7.9677806 L129.268952,9.71047788 L126.596817,0.00946298586 Z M111.990537,76.5968165 L125.451578,8.39420872 L125.548395,7.90367171 L124.567321,7.71003868 L124.470504,8.20057569 L111.009463,76.4031835 L110.912646,76.8937205 L111.89372,77.0873535 L111.990537,76.5968165 Z" fill="#979797" fill-rule="nonzero"></path>
            <path id="Line-Copy-9" d="M210.841579,32.1348643 L201.406943,35.6330999 L207.979386,41.7815141 L210.841579,32.1348643 Z M152.865136,94.8415786 L205.420736,38.6614546 L205.762314,38.2963189 L205.032043,37.6131617 L204.690464,37.9782975 L152.134864,94.1584214 L151.793286,94.5235571 L152.523557,95.2067143 L152.865136,94.8415786 Z" fill="#979797" fill-rule="nonzero"></path>
            <text id="B-Copy-2" font-family="Helvetica" font-size="24" font-weight="normal" fill="#000000">
                <tspan x="21" y="264">B</tspan>
            </text>
            <g id="Group-3" transform="translate(104.000000, 90.000000)">
                <path id="Line-Copy-10" d="M8.20138889,32 L3.70138889,41 L12.7013889,41 L8.20138889,32 Z M8.70138889,55.5 L8.70138889,40.5 L8.70138889,40 L7.70138889,40 L7.70138889,40.5 L7.70138889,55.5 L7.70138889,56 L8.70138889,56 L8.70138889,55.5 Z" fill="#979797" fill-rule="nonzero"></path>
                <text id="S-Copy-2" font-family="Helvetica" font-size="24" font-weight="normal" fill="#000000">
                    <tspan x="0" y="79">S</tspan>
                </text>
                <text id="B-Copy-3" font-family="Helvetica" font-size="24" font-weight="normal" fill="#000000">
                    <tspan x="0" y="23">B</tspan>
                </text>
            </g>
            <ellipse id="Oval-2" stroke="#979797" fill-rule="nonzero" cx="112" cy="133" rx="45" ry="52"></ellipse>
        </g>
        <g id="Group-2" transform="translate(326.000000, 177.000000)">
            <path id="Line-Copy" d="M8.20833333,108 L12.7083333,99 L3.70833333,99 L8.20833333,108 Z M7.70833333,38.5 L7.70833333,99.5 L7.70833333,100 L8.70833333,100 L8.70833333,99.5 L8.70833333,38.5 L8.70833333,38 L7.70833333,38 L7.70833333,38.5 Z" fill="#979797" fill-rule="nonzero"></path>
            <text id="S-Copy" font-family="Helvetica" font-size="24" font-weight="normal" fill="#000000">
                <tspan x="0" y="23">S</tspan>
            </text>
            <text id="B-Copy" font-family="Helvetica" font-size="24" font-weight="normal" fill="#000000">
                <tspan x="0" y="140">B</tspan>
            </text>
        </g>
        <g id="Group" transform="translate(8.000000, 67.000000)">
            <path id="Line" d="M110.55167,234.997323 L114.097519,225.580479 L105.145704,226.510537 L110.55167,234.997323 Z M102.002677,157.55167 L109.182724,226.659619 L109.234394,227.156942 L110.22904,227.053602 L110.17737,226.556279 L102.997323,157.44833 L102.945653,156.951007 L101.951007,157.054347 L102.002677,157.55167 Z" fill="#979797" fill-rule="nonzero"></path>
            <path id="Line" d="M176.764999,211.923999 L175.811001,201.907019 L168.179017,206.67701 L176.764999,211.923999 Z M131.076001,139.764999 L171.852879,205.008004 L172.117878,205.432003 L172.965876,204.902004 L172.700877,204.478005 L131.923999,139.235001 L131.659,138.811001 L130.811001,139.341 L131.076001,139.764999 Z" fill="#979797" fill-rule="nonzero"></path>
            <path id="Line" d="M188.99396,119.577484 L180.800039,113.737136 L179.405329,122.628412 L188.99396,119.577484 Z M137.422516,111.99396 L180.584384,118.764449 L181.078344,118.841933 L181.233312,117.854013 L180.739352,117.776529 L137.577484,111.00604 L137.083524,110.928556 L136.928556,111.916476 L137.422516,111.99396 Z" fill="#979797" fill-rule="nonzero"></path>
            <path id="Line" d="M41.2738119,220.945914 L49.3584198,214.955161 L41.3319746,210.883776 L41.2738119,220.945914 Z M76.0540864,151.273812 L44.6527223,213.179358 L44.4265342,213.625272 L45.3183615,214.077648 L45.5445495,213.631734 L76.9459136,151.726188 L77.1721017,151.280274 L76.2802744,150.827898 L76.0540864,151.273812 Z" fill="#979797" fill-rule="nonzero"></path>
            <path id="Line" d="M0.0139588957,134.61732 L9.81858117,136.879925 L7.70681637,128.131186 L0.0139588957,134.61732 Z M58.3826797,120.013959 L8.13628422,132.142399 L7.65024312,132.259719 L7.88488365,133.231802 L8.37092476,133.114481 L58.6173203,120.986041 L59.1033614,120.868721 L58.8687208,119.896639 L58.3826797,120.013959 Z" fill="#979797" fill-rule="nonzero"></path>
            <path id="Line" d="M23.1691892,40.1250811 L25.7495136,49.8509191 L32.4980543,43.8963244 L23.1691892,40.1250811 Z M68.8749189,91.1691892 L29.1349389,46.1305451 L28.804128,45.7556262 L28.0542902,46.4172478 L28.385101,46.7921667 L68.1250811,91.8308108 L68.4558919,92.2057297 L69.2057297,91.5441081 L68.8749189,91.1691892 Z" fill="#979797" fill-rule="nonzero"></path>
            <path id="Line" d="M110.582199,0.00680303808 L104.663836,8.14455291 L113.541381,9.6241438 L110.582199,0.00680303808 Z M97.993197,78.5821995 L109.688492,8.41043177 L109.770691,7.91723481 L108.784297,7.75283582 L108.702098,8.24603278 L97.006803,78.4178005 L96.9246035,78.9109975 L97.9109975,79.0753965 L97.993197,78.5821995 Z" fill="#979797" fill-rule="nonzero"></path>
            <path id="Line" d="M182.841579,27.1348643 L173.406943,30.6330999 L179.979386,36.7815141 L182.841579,27.1348643 Z M124.865136,89.8415786 L177.420736,33.6614546 L177.762314,33.2963189 L177.032043,32.6131617 L176.690464,32.9782975 L124.134864,89.1584214 L123.793286,89.5235571 L124.523557,90.2067143 L124.865136,89.8415786 Z" fill="#979797" fill-rule="nonzero"></path>
            <text id="S" font-family="Helvetica" font-size="24" font-weight="normal" fill="#000000">
                <tspan x="91" y="128">S</tspan>
            </text>
            <text id="B" font-family="Helvetica" font-size="24" font-weight="normal" fill="#000000">
                <tspan x="26" y="250">B</tspan>
            </text>
            <circle id="Oval" stroke="#979797" fill-rule="nonzero" cx="99" cy="119" r="31"></circle>
        </g>
        <text id="ⅰ.-Seller-led-one-to" font-family="Helvetica" font-size="18" font-weight="normal" fill="#000000">
            <tspan x="0" y="386">ⅰ. Seller-led one-to-many</tspan>
        </text>
        <text id="ⅲ.-Buyer-led-one-to-" font-family="Helvetica" font-size="18" font-weight="normal" fill="#000000">
            <tspan x="474" y="386">ⅲ. Buyer-led one-to-many</tspan>
        </text>
        <text id="ⅱ.-One-to-one" font-family="Helvetica" font-size="18" font-weight="normal" fill="#000000">
            <tspan x="273" y="386">	ⅱ. One-to-one</tspan>
        </text>
        <text id="Buyer-Seller-Relatio" font-family="Helvetica-BoldOblique, Helvetica" font-size="18" font-style="italic" font-weight="bold" fill="#000000">
            <tspan x="228" y="18">Buyer-Seller Relationships</tspan>
        </text>
    </g>
</svg>